<svg width="45" height="51" viewBox="0 0 45 51" fill="none" xmlns="http://www.w3.org/2000/svg">
<path d="M14 30.5V5.88679H22V1.5H26H30V5.88679H37V11.5H43V18.5V26.5V34C43 40 40 46.5 32.5 48.5C22.0709 51.2811 13.8333 44.3333 10.5 39.5L2.5 28.5L8.5 23.5L10.5 26L14 30.5Z" fill="white"/>
<path d="M22 26V13V5.88679M30 26V13V5.88679M37 26V15.5V11.5M22 5.88679V1.5H26H30V5.88679M22 5.88679H14V30.5L10.5 26L8.5 23.5L2.5 28.5L10.5 39.5C13.8333 44.3333 22.0709 51.2811 32.5 48.5C40 46.5 43 40 43 34V26.5V18.5V11.5H37M30 5.88679H37V11.5" stroke="black" stroke-width="3"/>
</svg>
